<svg width="73" height="72" viewBox="0 0 73 72" fill="none" xmlns="http://www.w3.org/2000/svg">
<path d="M6.81738 14.0243C6.29201 14.6547 6.0043 15.4494 6.0043 16.2701V63.738C6.0043 66.6441 8.36018 69 11.2663 69H60.7423C63.6484 69 66.0043 66.6441 66.0043 63.738V16.2701C66.0043 15.4494 65.7166 14.6547 65.1912 14.0243L57.0562 4.26223C56.3897 3.46243 55.4024 3 54.3612 3H17.6474C16.6063 3 15.6189 3.46243 14.9524 4.26223L6.81738 14.0243Z" stroke="#527C50" stroke-width="3.508"/>
<path d="M6.0043 16.4998H66.0043" stroke="#527C50" stroke-width="3.508"/>
<path d="M48.0043 30C48.0043 36.6274 42.6318 42 36.0043 42C29.3769 42 24.0043 36.6274 24.0043 30" stroke="#527C50" stroke-width="3.508" stroke-linecap="round"/>
</svg>
