<svg width="101" height="102" viewBox="0 0 101 102" fill="none" xmlns="http://www.w3.org/2000/svg">
<path d="M9.40156 20.3592C8.76507 21.123 8.4165 22.0857 8.4165 23.08V90.9163C8.4165 94.4371 11.2707 97.2913 14.7915 97.2913H86.2082C89.729 97.2913 92.5832 94.4371 92.5832 90.9163V23.08C92.5832 22.0857 92.2346 21.123 91.5981 20.3592L79.8297 6.23715C79.0223 5.26818 77.8261 4.70793 76.5648 4.70793H24.4349C23.1736 4.70793 21.9774 5.26818 21.1699 6.23715L9.40156 20.3592Z" stroke="#527C50" stroke-width="4.25"/>
<path d="M8.4165 23.6457H92.5832" stroke="#527C50" stroke-width="4.25"/>
<path d="M67.333 42.5829C67.333 51.8797 59.7965 59.4162 50.4997 59.4162C41.2029 59.4162 33.6664 51.8797 33.6664 42.5829" stroke="#527C50" stroke-width="4.25" stroke-linecap="round"/>
</svg>
