<svg width="74" height="84" viewBox="0 0 74 84" fill="none" xmlns="http://www.w3.org/2000/svg">
<path d="M37.0418 13.0289C37.0418 6.52893 33.4583 3.02893 28.9583 2.52894C24.4858 2.03201 19.5418 4.77752 18.0418 9.17785M26.5418 12.0289C23.0418 6.52894 17.5418 8.02894 15.0418 10.5289C13.5418 12.0289 12.0418 16.0289 15.0418 19.1373M24.0418 28.5289C24.0418 19.0289 15.0418 18.5289 12.0418 19.5289C9.04177 20.5289 3.04177 26.0289 6.04177 32.5289C4.04177 34.1956 2.04177 36.0289 2.04177 40.5289C2.04177 42.4539 3.7582 45.3179 4.81576 46.5289M10.5418 49.5289C8.40994 49.5289 6.46361 48.416 4.81576 46.5289M4.81576 46.5289C3.3911 48.5289 1.54177 51.0289 2.04177 55.0289C2.54177 59.0289 6.54177 61.1956 8.04177 62.0289C7.20843 63.5289 6.54177 66.5289 8.04177 70.0289C9.39721 73.1917 14.2084 74.1956 16.0418 74.5289C17.2084 77.1956 20.5418 81.5289 26.5418 81.5289C34.0418 81.5289 37.0418 75.0289 37.0418 72.5289M26.5418 36.0289C22.9583 39.0289 16.9583 38.5289 15.0418 32.5289M14.8747 44.9545C18.3747 43.9545 19.9583 41.4545 20.4583 38.038M24.9583 55.3694C21.9583 56.3694 19.9583 58.8694 19.9583 62.3694M15.6253 61.5289C20.0418 61.5289 23.0418 63.5289 24.0418 67.5289" stroke="#514D4E" stroke-width="3" stroke-linejoin="round"/>
<path d="M36.9582 13.0289C36.9582 6.52893 40.5417 3.02893 45.0417 2.52894C49.5142 2.03201 54.4582 4.77752 55.9582 9.17785M47.4582 12.0289C50.9582 6.52894 56.4582 8.02894 58.9582 10.5289C60.4582 12.0289 61.9582 16.0289 58.9582 19.1373M49.9582 28.5289C49.9582 19.0289 58.9582 18.5289 61.9582 19.5289C64.9582 20.5289 70.9582 26.0289 67.9582 32.5289C69.9582 34.1956 71.9582 36.0289 71.9582 40.5289C71.9582 42.4539 70.2418 45.3179 69.1842 46.5289M63.4582 49.5289C65.5901 49.5289 67.5364 48.416 69.1842 46.5289M69.1842 46.5289C70.6089 48.5289 72.4582 51.0289 71.9582 55.0289C71.4582 59.0289 67.4582 61.1956 65.9582 62.0289C66.7916 63.5289 67.4582 66.5289 65.9582 70.0289C64.6028 73.1917 59.7916 74.1956 57.9582 74.5289C56.7916 77.1956 53.4582 81.5289 47.4582 81.5289C39.9582 81.5289 36.9582 75.0289 36.9582 72.5289M47.4582 36.0289C51.0417 39.0289 57.0417 38.5289 58.9582 32.5289M59.1253 44.9545C55.6253 43.9545 54.0417 41.4545 53.5417 38.038M49.0417 55.3694C52.0417 56.3694 54.0417 58.8694 54.0417 62.3694M58.3747 61.5289C53.9582 61.5289 50.9582 63.5289 49.9582 67.5289" stroke="#514D4E" stroke-width="3" stroke-linejoin="round"/>
<path d="M28.9583 44.0091L36.9699 29.0289L35.1559 39.5322H41.9583L33.342 55.0289L35.1559 44.0091H28.9583Z" fill="#514D4E" stroke="#514D4E" stroke-width="3" stroke-linejoin="round"/>
</svg>
