<svg width="137" height="128" viewBox="0 0 137 128" fill="none" xmlns="http://www.w3.org/2000/svg">
<g clip-path="url(#clip0_70_1024)">
<path d="M95.537 42.5364V107.819C95.537 111.155 92.8325 113.864 89.4905 113.864H38.0798C34.7429 113.864 32.0333 111.16 32.0333 107.819V7.07313C32.0333 3.73704 34.7378 1.02808 38.0798 1.02808H89.4905C92.8274 1.02808 95.537 3.7319 95.537 7.07313V20.0834" stroke="#527C50" stroke-width="4" stroke-miterlimit="10"/>
<path d="M95.537 53.141C95.537 53.141 98.3648 55.5158 99.9073 53.4597C101.45 51.4036 94.7657 41.1228 92.1949 37.0106C89.6241 32.8983 86.5392 25.1877 91.1666 21.0755C96.3391 16.48 112.247 25.1877 128.88 57.4435C148.603 95.6877 118.417 118.228 111.733 121.826C105.049 125.425 87.0534 129.537 73.6852 124.911C60.3171 120.284 49.4221 113.859 49.4221 113.859" stroke="#527C50" stroke-width="4" stroke-miterlimit="10"/>
<path d="M32.0385 104.133C32.0385 104.133 12.8913 93.5545 9.35386 90.4703C5.81645 87.386 5.13262 83.6953 6.84477 80.7036C8.9014 77.1053 15.277 77.7736 19.0303 79.7526C22.7837 81.7317 32.0385 86.3323 32.0385 86.3323" stroke="#527C50" stroke-width="4" stroke-miterlimit="10"/>
<path d="M32.0385 80.5237C32.0385 80.5237 8.38721 68.3667 4.7881 66.3106C1.18899 64.2545 0.674835 59.6281 2.73147 56.5439C4.15569 54.4055 7.87305 52.9457 13.0146 55.0018C18.1562 57.058 32.0385 64.2699 32.0385 64.2699" stroke="#527C50" stroke-width="4" stroke-miterlimit="10"/>
<path d="M32.0385 57.4435C32.0385 57.4435 13.5288 47.8053 9.92968 45.2351C6.33057 42.665 7.35889 37.5246 8.90136 35.4685C10.8757 32.8366 14.5571 32.3842 19.1845 34.4404C23.812 36.4965 32.0385 41.6266 32.0385 41.6266" stroke="#527C50" stroke-width="4" stroke-miterlimit="10"/>
<path d="M32.0384 17.6314C32.0384 17.6314 29.8018 16.2435 27.0614 17.6314C24.3209 19.0193 22.2694 20.5614 22.2694 24.6737C22.2694 28.786 29.4676 32.888 32.0384 34.1782" stroke="#527C50" stroke-width="4" stroke-miterlimit="10"/>
<path d="M64.1733 101.265C66.587 101.265 68.5437 99.3088 68.5437 96.8957C68.5437 94.4826 66.587 92.5264 64.1733 92.5264C61.7596 92.5264 59.803 94.4826 59.803 96.8957C59.803 99.3088 61.7596 101.265 64.1733 101.265Z" stroke="#527C50" stroke-width="4" stroke-miterlimit="10"/>
</g>
<defs>
<clipPath id="clip0_70_1024">
<rect width="136" height="128" fill="white" transform="translate(0.5)"/>
</clipPath>
</defs>
</svg>
