<svg width="41" height="40" viewBox="0 0 41 40" fill="none" xmlns="http://www.w3.org/2000/svg">
<path d="M4.29687 7.77705C3.99734 8.13648 3.83331 8.58954 3.83331 9.05742V35.3333C3.83331 36.9902 5.17646 38.3333 6.83331 38.3333H34.1667C35.8235 38.3333 37.1666 36.9902 37.1666 35.3333V9.05742C37.1666 8.58954 37.0026 8.13648 36.7031 7.77705L32.2108 2.38628C31.8308 1.9303 31.2679 1.66665 30.6743 1.66665H10.3256C9.73206 1.66665 9.16916 1.9303 8.78918 2.38628L4.29687 7.77705Z" stroke="#2A2728" stroke-width="2"/>
<path d="M3.83331 9.16663H37.1666" stroke="#2A2728" stroke-width="2"/>
<path d="M27.1666 16.6666C27.1666 20.3485 24.1819 23.3333 20.5 23.3333C16.8181 23.3333 13.8333 20.3485 13.8333 16.6666" stroke="#2A2728" stroke-width="2" stroke-linecap="round"/>
</svg>
