<svg width="28" height="30" viewBox="0 0 28 30" fill="none" xmlns="http://www.w3.org/2000/svg">
<path d="M2 7.00024H4.66666H26" stroke="#514D4E" stroke-width="2.66666" stroke-linecap="round" stroke-linejoin="round"/>
<path d="M23.3334 7.00007V25.6667C23.3334 26.3739 23.0524 27.0522 22.5523 27.5523C22.0522 28.0524 21.374 28.3334 20.6667 28.3334H7.33341C6.62617 28.3334 5.94789 28.0524 5.44779 27.5523C4.9477 27.0522 4.66675 26.3739 4.66675 25.6667V7.00007M8.66674 7.00007V4.33341C8.66674 3.62617 8.94769 2.94789 9.44779 2.44779C9.94788 1.9477 10.6262 1.66675 11.3334 1.66675H16.6667C17.374 1.66675 18.0522 1.9477 18.5523 2.44779C19.0524 2.94789 19.3334 3.62617 19.3334 4.33341V7.00007" stroke="#514D4E" stroke-width="2.66666" stroke-linecap="round" stroke-linejoin="round"/>
</svg>
