<svg width="97" height="98" viewBox="0 0 97 98" fill="none" xmlns="http://www.w3.org/2000/svg">
<path d="M64.4568 54.2077C65.6272 54.6287 71.8925 57.7624 73.1548 58.4172C74.417 59.0486 75.2662 59.3761 75.5645 59.9607C75.8858 60.4986 75.8858 63.0945 74.8301 66.1347C73.7744 69.1749 68.7025 71.9344 66.2469 72.3086C62.2077 72.9166 59.0406 72.6126 50.9622 69.0579C38.1791 63.4219 29.8483 50.3256 29.2057 49.4603C28.5861 48.595 24.019 42.4211 24.019 36.0366C24.019 29.6522 27.3009 26.5185 28.4713 25.2088C29.6418 23.9226 31.0188 23.5952 31.8679 23.5952C32.7171 23.5952 33.5662 23.5952 34.3006 23.642C35.0809 23.6887 36.1366 23.338 37.1693 25.8637C38.225 28.4595 40.7725 34.844 41.0938 35.4988C41.4151 36.1536 41.6216 36.9019 41.2085 37.7672C38.7758 42.7251 36.1595 42.5614 37.4677 44.8532C42.4019 53.4827 47.3132 56.4762 54.7949 60.2881C56.0571 60.9429 56.8145 60.826 57.5488 59.9607C58.3062 59.072 60.7389 56.1721 61.588 54.8625C62.4372 53.5529 63.2863 53.7634 64.4568 54.2077Z" fill="#527C50"/>
<path d="M9.68973 75.3755L10.0415 74.274L9.42997 73.2927C5.03785 66.2447 2.5 57.9225 2.5 49C2.5 23.5949 23.0949 3 48.5 3C73.9051 3 94.5 23.5949 94.5 49C94.5 74.4051 73.9051 95 48.5 95C39.5775 95 31.2553 92.4621 24.2073 88.07L23.226 87.4585L22.1245 87.8103L3.85567 93.6443L9.68973 75.3755Z" stroke="#527C50" stroke-width="5"/>
</svg>
