<svg width="73" height="73" viewBox="0 0 73 73" fill="none" xmlns="http://www.w3.org/2000/svg">
<path d="M48.3946 40.2775C49.2343 40.5775 53.729 42.8103 54.6345 43.2769C55.5401 43.7268 56.1492 43.9601 56.3633 44.3767C56.5938 44.7599 56.5938 46.6096 55.8364 48.7758C55.0791 50.942 51.4405 52.9083 49.6788 53.1749C46.7811 53.6081 44.509 53.3915 38.7136 50.8587C29.5431 46.8428 23.5666 37.5114 23.1056 36.8949C22.661 36.2783 19.3846 31.8792 19.3846 27.3302C19.3846 22.7811 21.739 20.5482 22.5787 19.6151C23.4184 18.6986 24.4062 18.4653 25.0154 18.4653C25.6246 18.4653 26.2338 18.4653 26.7606 18.4987C27.3204 18.532 28.0778 18.282 28.8186 20.0817C29.576 21.9313 31.4035 26.4804 31.634 26.9469C31.8645 27.4135 32.0127 27.9467 31.7163 28.5633C29.9711 32.0959 28.0942 31.9792 29.0327 33.6122C32.5725 39.761 36.0958 41.8939 41.4632 44.61C42.3687 45.0765 42.912 44.9932 43.4389 44.3767C43.9822 43.7435 45.7274 41.6772 46.3366 40.7441C46.9457 39.8109 47.5549 39.9609 48.3946 40.2775Z" fill="#527C50"/>
<path d="M8.21833 56.2918L8.50865 55.3826L8.00391 54.5727C4.76374 49.3731 2.89147 43.2338 2.89147 36.6509C2.89147 17.9083 18.0853 2.71441 36.8279 2.71441C55.5705 2.71441 70.7644 17.9083 70.7644 36.6509C70.7644 55.3935 55.5705 70.5873 36.8279 70.5873C30.245 70.5873 24.1057 68.7151 18.9061 65.4749L18.0962 64.9702L17.187 65.2605L4.01045 69.4684L8.21833 56.2918Z" stroke="#527C50" stroke-width="4.12706"/>
</svg>
