<svg width="64" height="79" viewBox="0 0 64 79" fill="none" xmlns="http://www.w3.org/2000/svg">
<path d="M49.2993 56.3627C52.2578 54.7175 58.1748 50.2468 58.1748 41.6631C58.1748 33.8519 58.1748 32.686 58.1748 33.0794C58.1748 28.7453 57.1898 24.6421 55.4322 20.9828M30.3721 69.0236V76.4307C30.3721 77.0212 29.8933 77.5 29.3028 77.5V77.5C13.9477 77.5 1.5 65.0101 1.5 49.603V33.0794C1.5 17.6723 13.9477 5.1824 29.3028 5.1824H30.3721C33.8727 5.1824 37.2222 5.83156 40.3076 7.01644M30.3721 69.0236C44.7012 69.0236 50.5826 56.3627 50.5826 49.4957C50.5826 44.0021 50.5826 39.4099 50.5826 37.8004C42.8833 40.8047 35.5049 37.8004 32.5108 30.2897C27.1641 38.7661 19.6039 41.3562 9.30616 36.4056C9.30616 37.6931 9.30616 42.1137 9.30616 49.4957C9.30616 58.7232 17.2192 69.0236 30.3721 69.0236ZM24.063 56.8991C26.8433 59.9034 33.2593 59.9034 35.5049 56.8991M51.0993 8.83047C53.6635 6.63924 57.3227 5.3567 62.4522 6.04077C62.7832 10.4861 61.4955 17.8549 55.4322 20.9828M51.0993 8.83047C49.834 6.04077 46.241 2.92918 41.2793 2.5C40.7937 3.614 40.369 5.23413 40.3076 7.01644M51.0993 8.83047C48.6224 10.9471 47.1673 13.9115 46.3956 16.7704M46.3956 16.7704C45.8611 18.7507 45.6546 20.6804 45.6636 22.2425C49.8183 22.8065 53.0072 22.2338 55.4322 20.9828M46.3956 16.7704C41.46 14.6195 40.1873 10.507 40.3076 7.01644" stroke="#514D4E" stroke-width="3"/>
</svg>
