<svg width="76" height="72" viewBox="0 0 76 72" fill="none" xmlns="http://www.w3.org/2000/svg">
<path d="M52.3801 24.4284V59.2281C52.3801 61.0064 50.9264 62.4505 49.1299 62.4505H21.4944C19.7007 62.4505 18.2442 61.0092 18.2442 59.2281V5.52416C18.2442 3.74581 19.6979 2.30176 21.4944 2.30176H49.1299C50.9236 2.30176 52.3801 3.74307 52.3801 5.52416V12.4594" stroke="#527C50" stroke-width="3.30164" stroke-miterlimit="10"/>
<path d="M52.3801 30.0811C52.3801 30.0811 53.9002 31.3471 54.7294 30.251C55.5585 29.155 51.9656 23.6747 50.5837 21.4826C49.2017 19.2905 47.5435 15.1803 50.0309 12.9882C52.8113 10.5385 61.3626 15.1803 70.3035 32.3746C80.9055 52.7612 64.6791 64.7767 61.0862 66.6948C57.4932 68.6129 47.8198 70.805 40.6339 68.3389C33.448 65.8728 27.5914 62.4476 27.5914 62.4476" stroke="#527C50" stroke-width="3.30164" stroke-miterlimit="10"/>
<path d="M18.2469 57.2634C18.2469 57.2634 7.95448 51.6242 6.05297 49.9801C4.15146 48.336 3.78387 46.3686 4.70422 44.7739C5.80975 42.8558 9.23689 43.212 11.2545 44.2669C13.2721 45.3219 18.2469 47.7743 18.2469 47.7743" stroke="#527C50" stroke-width="3.30164" stroke-miterlimit="10"/>
<path d="M18.2469 44.6779C18.2469 44.6779 5.53336 38.1974 3.59868 37.1014C1.66401 36.0053 1.38763 33.5392 2.49315 31.8951C3.25873 30.7552 5.25698 29.977 8.0208 31.0731C10.7846 32.1691 18.2469 36.0136 18.2469 36.0136" stroke="#527C50" stroke-width="3.30164" stroke-miterlimit="10"/>
<path d="M18.2469 32.3743C18.2469 32.3743 8.29719 27.2365 6.36251 25.8665C4.42784 24.4964 4.9806 21.7563 5.80975 20.6602C6.87106 19.2572 8.84995 19.0161 11.3374 20.1122C13.8248 21.2082 18.2469 23.9429 18.2469 23.9429" stroke="#527C50" stroke-width="3.30164" stroke-miterlimit="10"/>
<path d="M18.2469 11.1523C18.2469 11.1523 17.0447 10.4125 15.5716 11.1523C14.0984 11.8921 12.9957 12.7142 12.9957 14.9063C12.9957 17.0984 16.865 19.285 18.2469 19.9728" stroke="#527C50" stroke-width="3.30164" stroke-miterlimit="10"/>
<path d="M35.5208 55.7342C36.8183 55.7342 37.8701 54.6914 37.8701 53.405C37.8701 52.1187 36.8183 51.0759 35.5208 51.0759C34.2234 51.0759 33.1716 52.1187 33.1716 53.405C33.1716 54.6914 34.2234 55.7342 35.5208 55.7342Z" stroke="#527C50" stroke-width="3.30164" stroke-miterlimit="10"/>
</svg>
