<svg width="121" height="40" viewBox="0 0 121 40" fill="none" xmlns="http://www.w3.org/2000/svg">
<path d="M19.4496 32.3609L9.32094 16.1171L15.254 34.0021C8.27357 32.6324 1.45656 25.0958 0.560536 14.4094C0.212151 9.60355 1.58271 4.82998 4.42916 0.935303C9.51467 4.8997 21.4959 10.1675 22.3798 20.709C22.7976 25.6449 21.2901 29.018 19.4496 32.3609Z" fill="#3A493D"/>
<path d="M24.8317 33.1211L32.3631 23.9915L27.2716 34.4667C31.6548 34.1952 36.4497 30.1342 37.8724 23.6536C38.4764 20.7374 38.026 17.7023 36.6011 15.0852C33.1623 17.1066 25.3887 19.3573 23.9902 25.7474C23.3303 28.7343 23.9781 30.9247 24.8317 33.1211Z" fill="#3A493D"/>
<path d="M21.2296 39.6018C22.7643 39.6018 24.0084 38.3618 24.0084 36.8321C24.0084 35.3025 22.7643 34.0625 21.2296 34.0625C19.6948 34.0625 18.4507 35.3025 18.4507 36.8321C18.4507 38.3618 19.6948 39.6018 21.2296 39.6018Z" fill="#7EA874"/>
<path d="M65.0134 0.983521L57.93 17.4626H53.3227L46.2635 0.983521H51.3188L55.8049 11.7182L60.388 0.983521H65.0134Z" fill="#3A493D"/>
<path d="M77.9997 12.213H68.6944C69.0758 13.5043 70.1837 14.2585 71.8365 14.2585C72.3777 14.2778 72.9174 14.1902 73.4244 14.0006C73.9315 13.8111 74.3959 13.5235 74.7909 13.1543L77.1521 15.5679C75.9412 16.9376 74.125 17.6436 71.7033 17.6436C67.1445 17.6436 64.1901 14.8438 64.1901 11.0061C64.1901 7.16845 67.2172 4.44104 71.2311 4.44104C75.0089 4.44104 78.0784 6.85468 78.0784 11.0785C78.0723 11.4647 78.0239 11.8569 77.9997 12.213ZM68.6278 9.85965H73.8707C73.7598 9.24722 73.4365 8.69309 72.9574 8.29404C72.4782 7.89498 71.8737 7.67635 71.2492 7.67635C70.6248 7.67635 70.0203 7.89498 69.5411 8.29404C69.062 8.69309 68.7387 9.24722 68.6278 9.85965Z" fill="#3A493D"/>
<path d="M88.885 4.49536V8.51407C88.5475 8.47305 88.2079 8.45089 87.8679 8.44769C86.0516 8.44769 84.7984 9.36488 84.7984 11.5975V17.4626H80.3123V4.70656H84.5865V6.23318C85.5128 5.08067 86.9961 4.49536 88.885 4.49536Z" fill="#3A493D"/>
<path d="M104.372 0V17.4627H100.097V16.1895C99.2498 17.2032 97.9966 17.6739 96.3438 17.6739C92.8505 17.6739 90.0414 15.1275 90.0414 11.0364C90.0414 6.94524 92.8505 4.47126 96.3438 4.47126C96.9936 4.43191 97.6444 4.52862 98.2544 4.75518C98.8644 4.98174 99.42 5.33312 99.8855 5.78669V0H104.372ZM99.9581 11.0605C99.9581 9.12958 98.8018 8.04345 97.2882 8.04345C95.7747 8.04345 94.6002 9.12355 94.6002 11.0605C94.6002 12.9974 95.7565 14.1198 97.2882 14.1198C98.82 14.1198 99.9581 13.0095 99.9581 11.0605Z" fill="#3A493D"/>
<path d="M120.427 12.213H111.128C111.503 13.5043 112.611 14.2585 114.264 14.2585C114.805 14.2785 115.345 14.1911 115.852 14.0016C116.36 13.812 116.824 13.524 117.219 13.1543L119.58 15.5679C118.369 16.9376 116.553 17.6436 114.131 17.6436C109.572 17.6436 106.624 14.8438 106.624 11.0061C106.624 7.16845 109.621 4.44104 113.659 4.44104C117.437 4.44104 120.506 6.85468 120.506 11.0785C120.5 11.4647 120.452 11.8569 120.427 12.213ZM111.055 9.85965H116.298C116.187 9.24722 115.864 8.69309 115.385 8.29404C114.906 7.89498 114.301 7.67635 113.677 7.67635C113.052 7.67635 112.448 7.89498 111.969 8.29404C111.49 8.69309 111.166 9.24722 111.055 9.85965Z" fill="#3A493D"/>
<path d="M65.0134 23.3097L57.93 39.7888H53.3227L46.2635 23.3097H51.3188L55.8049 34.0443L60.388 23.3097H65.0134Z" fill="#719D66"/>
<path d="M65.7944 23.2433C65.7944 21.8977 66.8781 20.8658 68.5309 20.8658C70.1837 20.8658 71.2674 21.8313 71.2674 23.1709C71.2674 24.5104 70.1837 25.6207 68.5309 25.6207C66.8781 25.6207 65.7944 24.5828 65.7944 23.2433ZM66.2909 27.0327H70.777V39.7888H66.2909V27.0327Z" fill="#719D66"/>
<path d="M87.4441 22.3262V39.7888H83.1699V38.5156C82.3223 39.5294 81.0691 40 79.4163 40C75.923 40 73.1139 37.4536 73.1139 33.3625C73.1139 29.2714 75.923 26.7974 79.4163 26.7974C80.0661 26.7581 80.7169 26.8548 81.3269 27.0814C81.9369 27.3079 82.4925 27.6593 82.958 28.1129V22.3262H87.4441ZM83.0306 33.3867C83.0306 31.4558 81.8743 30.3696 80.3608 30.3696C78.8472 30.3696 77.6666 31.4497 77.6666 33.3867C77.6666 35.3236 78.823 36.4459 80.3608 36.4459C81.8985 36.4459 83.0306 35.3357 83.0306 33.3867Z" fill="#719D66"/>
<path d="M95.9442 26.8216C93.9625 26.786 92.0097 27.2977 90.3017 28.2999L91.8092 31.317C92.8242 30.5976 94.0389 30.2116 95.2843 30.2127C97.0521 30.2127 97.93 30.9428 97.9966 32.2402H95.4478C91.4823 32.2402 89.7568 33.6944 89.7568 36.0477C89.7568 38.2622 91.4581 39.9819 94.5275 39.9819C96.3922 39.9819 97.6697 39.3423 98.3053 38.1234V39.7707H102.465V32.7048C102.465 28.6559 100.097 26.8216 95.9442 26.8216ZM97.712 36.4761C96.3801 37.6829 94.6849 37.8398 93.6739 37.2123L96.4406 35.6917L93.347 36.5365C93.4724 35.861 93.8119 35.2434 94.3156 34.7745C95.6294 33.5677 97.6999 34.2978 98.7776 34.3883C98.6781 35.1852 98.3009 35.922 97.712 36.4701V36.4761Z" fill="#719D66"/>
</svg>
