<svg width="24" height="26" viewBox="0 0 24 26" fill="none" xmlns="http://www.w3.org/2000/svg">
<path d="M11.9308 20.5738L5.54649 10.3981L9.29448 21.5996C4.89601 20.7408 0.600784 16.0244 0.0329057 9.33144C-0.184424 6.32296 0.679933 3.33532 2.47306 0.897095C5.68071 3.38139 13.2318 6.69038 13.7859 13.2811C14.0406 16.3652 13.0803 18.478 11.9308 20.5738Z" fill="#3A493D"/>
<path d="M15.6133 21.0475L20.3629 15.3292L17.1518 21.8927C19.9051 21.7189 22.9373 19.1664 23.8355 15.1213C24.2157 13.2946 23.9317 11.3936 23.0336 9.75403C20.8654 11.0183 15.9678 12.4292 15.0833 16.4299C14.6669 18.3008 15.0764 19.6708 15.6133 21.0475Z" fill="#3A493D"/>
<path d="M13.0528 25.1028C14.0203 25.1028 14.8046 24.3262 14.8046 23.3682C14.8046 22.4103 14.0203 21.6337 13.0528 21.6337C12.0852 21.6337 11.3009 22.4103 11.3009 23.3682C11.3009 24.3262 12.0852 25.1028 13.0528 25.1028Z" fill="#7EA874"/>
</svg>
